<?xml version="1.0" encoding="UTF-8" standalone="no"?>
<svg
   xmlns:dc="http://purl.org/dc/elements/1.1/"
   xmlns:cc="http://creativecommons.org/ns#"
   xmlns:rdf="http://www.w3.org/1999/02/22-rdf-syntax-ns#"
   xmlns:svg="http://www.w3.org/2000/svg"
   xmlns="http://www.w3.org/2000/svg"
   viewBox="0 0 612.44061 141.31651"
   height="141.31651"
   width="612.44061"
   xml:space="preserve"
   version="1.1"
   id="svg3355"><metadata
     id="metadata3361"><rdf:RDF><cc:Work
         rdf:about=""><dc:format>image/svg+xml</dc:format><dc:type
           rdf:resource="http://purl.org/dc/dcmitype/StillImage" /><dc:title></dc:title></cc:Work></rdf:RDF></metadata><defs
     id="defs3359"><clipPath
       id="clipPath3371"
       clipPathUnits="userSpaceOnUse"><path
         id="path3373"
         d="m 0,0 6028.6,0 0,2261 L 0,2261 0,0 Z" /></clipPath></defs><g
     transform="matrix(1.25,0,0,-1.25,-70.566875,211.88388)"
     id="g3363"><g
       transform="scale(0.1,0.1)"
       id="g3365"><g
         id="g3367"><g
           clip-path="url(#clipPath3371)"
           id="g3369"><path
             id="path3375"
             style="fill:#ED5240;fill-opacity:1;fill-rule:nonzero;stroke:none"
             d="m 5093.33,564.57 c 199.07,-2.082 370.73,101.032 370.73,101.032 l 0,547.388 -193.51,-171.93 0,-241.271 c 0,0 -64.82,-37.168 -164.85,-37.168 -206.78,0 -375.03,164.238 -375.03,366.129 0,200.04 162.95,369.14 373.01,362.3 62.07,-2.03 104.47,-18.78 141.98,-34.65 l 160.36,142.8 c -89.52,59.67 -197.05,94.44 -312.69,94.44 -311.78,0 -564.53,-252.75 -564.53,-564.54 0,-311.78 252.75,-564.53 564.53,-564.53 z M 935.27,1695.04 c -199.071,2.08 -370.735,-101.03 -370.735,-101.03 l 0,-616.131 193.52,171.941 0,310 c 0,0 64.812,37.17 164.84,37.17 206.795,0 375.025,-164.24 375.025,-366.13 0,-200.051 -162.94,-369.149 -372.998,-362.301 -62.07,2.031 -104.473,18.773 -141.988,34.64 L 622.586,660.398 c 89.519,-59.66 197.039,-94.429 312.684,-94.429 311.78,0 564.53,252.75 564.53,564.531 0,311.79 -252.75,564.54 -564.53,564.54 z M 3476.8,588.672 l 644.24,0 0,192.156 -556.55,0 0,251.982 456.94,0 0,199.51 -456.94,0 0,256.43 556.55,0 0,184.57 -764.46,0 0,-964.429 c 0,-66.391 53.83,-120.219 120.22,-120.219 z m -618.21,1084.648 0.79,-1085.629 -215.1,0 -492.87,740.349 0,-740.349 -194.23,0 0,1085.629 108.92,0 c 65.48,0 126.59,-32.85 162.73,-87.45 l 435.01,-657.358 0,744.808 194.75,0" /></g></g></g></g></svg>