<?xml version="1.0" standalone="no"?>
<!DOCTYPE svg PUBLIC "-//W3C//DTD SVG 20010904//EN"
 "http://www.w3.org/TR/2001/REC-SVG-20010904/DTD/svg10.dtd">
<svg version="1.0" xmlns="http://www.w3.org/2000/svg"
 width="362.000000pt" height="365.000000pt" viewBox="0 0 362.000000 365.000000"
 preserveAspectRatio="xMidYMid meet">

<g transform="translate(0.000000,365.000000) scale(0.100000,-0.100000)"
fill="#000000" stroke="none">
<path d="M1627 3639 c-358 -35 -730 -198 -1007 -441 -488 -430 -711 -1099
-579 -1740 201 -978 1147 -1606 2124 -1412 215 43 492 162 675 291 144 102
358 321 452 463 100 151 169 292 223 453 69 206 89 334 89 567 1 206 -8 287
-51 455 -217 870 -1035 1450 -1926 1364z m443 -305 c529 -91 998 -497 1170
-1012 57 -171 74 -279 74 -482 1 -211 -14 -317 -70 -489 -77 -235 -190 -418
-374 -602 -224 -225 -457 -353 -767 -421 -145 -32 -444 -32 -593 1 -309 66
-543 194 -765 416 -182 181 -296 364 -375 604 -182 549 -39 1152 369 1560 124
124 239 208 389 284 168 86 327 134 512 157 101 12 314 4 430 -16z"/>
<path d="M1010 1815 l0 -845 120 0 120 0 1 563 1 562 278 -559 278 -560 30 65
c16 35 46 101 67 146 l37 82 -343 695 -344 696 -122 0 -123 0 0 -845z"/>
<path d="M2467 2396 l-117 -254 0 -586 0 -586 120 0 120 0 0 840 c0 462 -1
840 -3 840 -1 0 -55 -114 -120 -254z"/>
</g>
</svg>
